<?xml version="1.0" standalone="no"?>
<!DOCTYPE svg PUBLIC "-//W3C//DTD SVG 20010904//EN"
 "http://www.w3.org/TR/2001/REC-SVG-20010904/DTD/svg10.dtd">
<svg version="1.0" xmlns="http://www.w3.org/2000/svg"
 width="225.000000pt" height="225.000000pt" viewBox="0 0 225.000000 225.000000"
 preserveAspectRatio="xMidYMid meet">

<g transform="translate(0.000000,225.000000) scale(0.100000,-0.100000)"
fill="" fill-opacity="0.0" stroke="white" stroke-width="20">
<path d="M0 1125 l0 -1125 1125 0 1125 0 0 1125 0 1125 -1125 0 -1125 0 0
-1125z m803 475 c74 -27 87 -33 87 -41 0 -5 -10 -3 -22 4 -13 8 -41 15 -63 16
-22 2 -44 7 -50 11 -12 10 -76 7 -95 -5 -7 -4 -36 -9 -64 -10 -75 -4 -78 -4
-72 -14 3 -5 -2 -8 -11 -7 -10 0 -18 -6 -18 -14 0 -8 -12 -17 -27 -20 -33 -6
-71 -37 -63 -50 3 -6 0 -10 -7 -10 -22 0 -82 -67 -66 -73 8 -3 5 -6 -7 -6 -17
-1 -17 -3 -5 -11 11 -7 11 -10 2 -10 -7 0 -10 -4 -7 -10 3 -5 -1 -10 -9 -10
-9 0 -16 -8 -16 -19 0 -11 -5 -21 -11 -23 -6 -2 -13 -24 -14 -48 -1 -25 -5
-55 -8 -67 -4 -15 -1 -23 6 -23 8 0 8 -3 2 -8 -13 -9 -18 -72 -6 -86 9 -10 16
-45 11 -56 -8 -23 -6 -40 6 -40 8 0 14 -9 14 -20 0 -12 7 -20 18 -20 14 0 15
-2 2 -10 -9 -6 -11 -10 -3 -10 7 0 10 -7 7 -15 -4 -10 0 -15 11 -15 9 0 13 -4
10 -10 -7 -11 43 -59 63 -60 7 0 10 -5 7 -11 -11 -17 26 -49 56 -49 19 0 30
-6 34 -21 8 -26 50 -42 87 -34 18 4 35 2 44 -6 30 -24 196 -13 241 16 16 11
24 12 21 5 -5 -15 -90 -49 -138 -56 -70 -9 -147 -4 -178 11 -17 9 -40 14 -51
10 -10 -3 -25 0 -32 7 -15 15 -68 42 -84 43 -5 1 -20 6 -31 13 -12 6 -24 8
-28 5 -3 -3 -6 3 -6 15 0 18 -6 22 -30 22 -17 0 -40 9 -51 19 -18 16 -19 22
-8 43 6 12 17 26 23 30 6 4 -2 8 -18 8 -22 0 -27 3 -22 17 4 10 4 14 0 10 -8
-8 -34 11 -34 24 0 5 7 9 15 9 22 0 18 13 -16 51 -28 31 -29 34 -11 37 25 4
18 42 -7 42 -29 0 -33 13 -10 31 27 20 31 62 6 69 -19 5 -25 25 -7 25 16 0 33
23 25 34 -3 6 -9 9 -13 7 -4 -2 -12 2 -19 9 -10 11 -7 15 17 20 28 6 50 30 50
54 0 6 -6 10 -12 9 -25 -5 -13 26 12 33 14 4 19 7 13 8 -26 2 -12 21 15 21 15
0 22 4 16 8 -6 4 -16 16 -22 28 -9 18 -7 24 11 40 12 10 31 20 42 22 11 2 27
5 35 8 13 4 13 6 0 14 -13 8 -12 10 3 10 9 0 25 4 35 9 9 5 35 17 57 27 22 11
45 24 52 30 6 6 22 9 35 7 13 -2 39 2 58 11 39 16 173 14 223 -4z m-74 -296
c24 -5 31 -12 31 -30 l0 -24 -20 20 c-30 30 -95 27 -115 -4 -21 -31 -9 -57 43
-91 82 -53 107 -87 96 -130 -13 -52 -93 -85 -159 -67 -23 6 -31 15 -33 38 l-4
29 22 -28 c17 -22 30 -27 62 -27 64 0 95 40 69 88 -5 9 -34 35 -65 57 -89 64
-98 128 -23 160 37 16 52 18 96 9z m-297 -158 c-3 -142 -1 -155 15 -159 10 -3
-2 -5 -27 -6 l-45 -1 0 160 0 160 30 0 30 0 -3 -154z m640 132 c-3 -12 -7 -17
-10 -10 -2 7 -24 12 -58 12 l-54 0 0 -60 0 -60 61 0 c42 0 59 -4 57 -12 -3 -8
-24 -11 -61 -9 l-57 2 0 -65 c0 -54 3 -67 19 -76 29 -15 73 -12 100 6 22 16
23 15 19 -2 -3 -17 -15 -19 -101 -22 -95 -3 -98 -2 -88 17 6 11 11 78 11 150
0 113 -2 131 -17 140 -13 8 10 10 84 11 100 0 101 0 95 -22z m199 8 c-7 -9
-11 -39 -9 -76 l3 -61 73 61 c39 33 72 68 72 75 0 11 11 15 36 15 l37 0 -39
-26 c-21 -15 -63 -47 -93 -72 -51 -44 -52 -46 -34 -61 142 -115 178 -142 200
-147 31 -8 28 -13 109 166 33 74 65 133 70 131 5 -2 39 -67 75 -145 46 -99 73
-145 90 -153 23 -12 22 -13 -16 -13 -40 0 -41 1 -67 60 l-26 60 -65 0 -64 0
-18 -45 c-9 -25 -14 -52 -11 -60 4 -12 -6 -15 -57 -15 -76 0 -102 13 -196 98
-38 34 -72 62 -75 62 -3 0 -6 -31 -6 -70 0 -55 3 -71 18 -79 13 -8 6 -10 -32
-11 -39 0 -47 3 -38 12 17 17 17 294 0 301 -7 3 7 6 31 6 36 1 42 -1 32 -13z
m751 -3 c-5 -10 -8 -78 -8 -151 1 -105 5 -135 16 -142 10 -7 0 -10 -35 -10
-30 0 -45 4 -37 9 10 6 12 43 10 159 l-3 152 33 0 c28 0 31 -3 24 -17z m-884
-454 c16 -1 16 -2 0 -6 -9 -2 -24 -15 -32 -29 -9 -13 -24 -24 -33 -24 -14 0
-13 3 5 16 27 19 21 34 -11 26 -25 -6 -37 -20 -37 -44 0 -13 11 -18 43 -21
l42 -4 -47 -1 -48 -2 0 35 c0 26 -4 35 -17 36 -14 0 -13 2 5 9 12 5 22 16 22
25 0 8 5 15 11 15 6 0 9 -6 6 -14 -3 -8 -1 -17 6 -19 22 -7 46 5 54 27 l7 21
4 -22 c2 -13 11 -24 20 -24z m109 22 c-3 -13 1 -21 15 -25 17 -4 19 -10 13
-33 -12 -48 -44 -70 -61 -41 -5 7 -2 9 8 5 20 -7 38 11 38 40 0 35 -24 27 -54
-18 -15 -22 -30 -39 -33 -36 -2 3 6 20 18 37 20 26 21 32 9 40 -12 8 -11 10 7
10 13 0 24 8 28 20 8 26 19 26 12 1z m-412 -21 c-8 -16 -15 -38 -15 -50 0 -18
3 -19 23 -9 20 11 21 11 8 -4 -17 -21 -37 -22 -45 -2 -7 18 22 95 35 95 5 0 3
-13 -6 -30z m567 -14 c-18 -49 -12 -66 15 -45 16 13 17 12 4 -3 -7 -10 -20
-18 -29 -18 -11 0 -13 9 -9 40 4 34 21 70 32 70 1 0 -5 -20 -13 -44z m-458 -8
c6 -28 2 -48 -8 -37 -8 10 -15 69 -7 69 5 0 11 -14 15 -32z m385 -23 c0 -5 -6
-1 -14 9 -8 11 -15 27 -15 35 1 17 29 -26 29 -44z m185 33 c7 -29 8 -53 1 -46
-11 10 -23 68 -15 68 4 0 10 -10 14 -22z m-554 -78 c0 -5 -4 -10 -9 -10 -6 0
-13 5 -16 10 -3 6 1 10 9 10 9 0 16 -4 16 -10z m-40 -20 c0 -5 -5 -10 -11 -10
-5 0 -7 5 -4 10 3 6 8 10 11 10 2 0 4 -4 4 -10z"/>
<path d="M1661 1187 c-13 -32 -21 -60 -18 -63 2 -3 25 -4 50 -2 l45 3 -27 60
-27 59 -23 -57z"/>
</g>
</svg>
